<?xml version="1.0" encoding="UTF-8"?>
<svg id="Layer_1" data-name="Layer 1" xmlns="http://www.w3.org/2000/svg" xmlns:xlink="http://www.w3.org/1999/xlink" viewBox="0 0 1080 318.66">
  <defs>
    <style>
      .cls-1 {
        fill: none;
      }

      .cls-2 {
        fill: #fe4b1a;
      }

      .cls-3 {
        fill: #c318e3;
      }

      .cls-4 {
        fill: #fee11f;
      }

      .cls-5 {
        fill: #10f3d4;
      }

      .cls-6 {
        fill: #fff;
      }

      .cls-7 {
        fill: #ff146d;
      }

      .cls-8 {
        clip-path: url(#clippath);
      }

      .cls-9 {
        fill: #0aee86;
      }
    </style>
    <clipPath id="clippath">
      <rect class="cls-1" x="69.75" y="43.77" width="310.63" height="231.44"/>
    </clipPath>
  </defs>
  <g class="cls-8">
    <g>
      <path d="M225.13,122.67s-.04-.04-.07-.07v.13s.04-.04.07-.07h0Z"/>
      <path class="cls-7" d="M225.07,122.73v-.13c-1.11-1.08-2.22-2.15-3.33-3.2-5.21,5.17-10.44,10.53-15.67,16.08-7.21,7.64-14.07,15.26-20.56,22.78,1.04,1.22,2.1,2.43,3.18,3.66,6.33-7.58,13.21-15.32,20.54-23.09,5.29-5.62,10.6-10.99,15.85-16.09h0Z"/>
      <path class="cls-7" d="M216.67,207.17c-33.13,29.26-61.55,45.17-69.86,37.34-8.46-7.97,6.43-38.18,34.68-73.76-1.13-1.26-2.25-2.52-3.36-3.77-41.94,50.47-65.06,94.69-53.39,105.71,11.51,10.85,53.23-13.88,100.31-57.46v-.12c-2.78-2.57-5.58-5.21-8.39-7.92h0Z"/>
      <path d="M225.07,215.2s.04-.04.07-.06c-.02-.02-.04-.04-.07-.06v.12Z"/>
      <path class="cls-9" d="M241.04,138.82c7.33,7.77,14.21,15.52,20.54,23.09,1.07-1.22,2.13-2.44,3.18-3.66-6.48-7.52-13.35-15.14-20.56-22.78-5.24-5.54-10.46-10.91-15.67-16.08-1.13,1.08-2.26,2.17-3.4,3.27,5.27,5.12,10.59,10.52,15.91,16.16Z"/>
      <path class="cls-9" d="M268.77,170.74c28.25,35.58,43.13,65.8,34.68,73.76-8.3,7.83-36.74-8.08-69.86-37.34-2.84,2.73-5.65,5.38-8.46,7.97,47.11,43.61,88.87,68.38,100.38,57.53,11.68-11.01-11.44-55.23-53.39-105.71-1.11,1.26-2.23,2.51-3.36,3.77h0Z"/>
      <path d="M225.07,199.56s.04-.04.07-.06c-.02-.02-.04-.04-.07-.06v.12h0Z"/>
      <path d="M225.13,116.04s-.04-.04-.07-.07v.13s.04-.04.07-.07h0Z"/>
      <path class="cls-4" d="M225.07,115.97v6.75c65.79,0,119.12,17.18,119.12,38.39s-53.33,38.39-119.12,38.39v15.79c85.78,0,155.32-22.23,155.32-49.66s-69.54-49.66-155.32-49.66Z"/>
      <path class="cls-5" d="M105.94,161.11c0-21.2,53.33-38.39,119.12-38.39v-6.75c-85.78,0-155.32,22.23-155.32,49.66s69.54,49.66,155.32,49.66v-15.79c-65.79,0-119.12-17.18-119.12-38.39Z"/>
      <path class="cls-2" d="M338.33,46.32c-12.55-11.83-61.02,18.65-113.2,69.73-.02.02-.04.04-.07.07v6.49s.04.04.07.07c1.13-1.1,2.26-2.19,3.4-3.27,38.36-36.57,73.24-57.84,82.59-49.03,9.55,9-10.7,46.42-46.36,87.89-1.04,1.22-2.1,2.43-3.18,3.66-4.1,4.68-8.4,9.41-12.87,14.13-7.91,8.39-15.84,16.24-23.58,23.45-.02.02-.04.04-.07.06v15.52s.04.04.07.06c2.8-2.59,5.63-5.26,8.46-7.97,7.74-7.44,15.59-15.35,23.43-23.66,4.02-4.26,7.95-8.53,11.75-12.77,1.13-1.26,2.25-2.52,3.36-3.77,49.92-56.46,79.03-108.56,66.2-120.65Z"/>
      <path class="cls-3" d="M111.93,46.32c-12.82,12.09,16.29,64.19,66.2,120.65,1.11,1.26,2.23,2.51,3.36,3.77,3.81,4.24,7.73,8.5,11.75,12.77,7.84,8.31,15.68,16.22,23.43,23.66,2.81,2.7,5.61,5.34,8.39,7.92v-15.65c-7.72-7.19-15.63-15.02-23.52-23.39-4.46-4.73-8.76-9.45-12.87-14.13-1.07-1.22-2.13-2.44-3.18-3.66-35.66-41.46-55.91-78.89-46.36-87.89,9.35-8.81,44.23,12.47,82.59,49.03,1.11,1.06,2.22,2.12,3.33,3.2v-6.62c-52.15-51.03-100.58-81.48-113.13-69.66Z"/>
    </g>
  </g>
  <g>
    <path class="cls-6" d="M458.86,103.28c3.78,1.97,6.74,4.68,8.87,8.13,2.14,3.45,3.2,7.44,3.2,11.96,0,7.07-2.51,12.94-7.52,17.63-5.01,4.68-11.14,7.03-18.37,7.03h-36.98V61.74h34.27c7.07,0,13.04,2.28,17.93,6.84,4.89,4.56,7.33,10.25,7.33,17.07,0,7.48-2.92,13.35-8.75,17.63ZM442.34,75.05h-20.09v22.68h20.09c3.12,0,5.75-1.09,7.89-3.27,2.14-2.18,3.2-4.87,3.2-8.07s-1.07-5.9-3.2-8.07c-2.14-2.18-4.77-3.27-7.89-3.27ZM445.06,134.71c3.29,0,6.06-1.17,8.32-3.51,2.26-2.34,3.39-5.2,3.39-8.57s-1.13-6.22-3.39-8.57c-2.26-2.34-5.03-3.51-8.32-3.51h-22.8v24.16h22.8Z"/>
    <path class="cls-6" d="M495.71,96.75c3.37-7.64,9.69-11.46,18.98-11.46v14.42c-5.1-.33-9.53.88-13.31,3.64-3.78,2.75-5.67,7.29-5.67,13.62v31.06h-13.31v-61.63h13.31v10.35Z"/>
    <path class="cls-6" d="M570.53,86.39h13.31v61.63h-13.31v-8.87c-5.01,6.99-12.2,10.48-21.57,10.48-8.46,0-15.7-3.14-21.69-9.43-6-6.29-9-13.95-9-22.99s3-16.8,9-23.05c6-6.24,13.23-9.37,21.69-9.37,9.37,0,16.56,3.45,21.57,10.35v-8.75ZM537.13,131.32c3.7,3.74,8.34,5.61,13.93,5.61s10.23-1.87,13.93-5.61c3.7-3.74,5.55-8.44,5.55-14.11s-1.85-10.37-5.55-14.11c-3.7-3.74-8.34-5.61-13.93-5.61s-10.23,1.87-13.93,5.61c-3.7,3.74-5.55,8.44-5.55,14.11s1.85,10.38,5.55,14.11Z"/>
    <path class="cls-6" d="M631.78,84.79c7.07,0,12.78,2.26,17.13,6.78,4.35,4.52,6.53,10.72,6.53,18.61v37.84h-13.31v-36.48c0-4.6-1.23-8.14-3.7-10.6-2.46-2.47-5.83-3.7-10.11-3.7-4.68,0-8.46,1.46-11.34,4.38-2.88,2.92-4.31,7.38-4.31,13.37v33.03h-13.31v-61.63h13.31v7.89c4.03-6.33,10.39-9.49,19.11-9.49Z"/>
    <path class="cls-6" d="M718.56,61.74h13.31v86.28h-13.31v-8.87c-5.01,6.99-12.2,10.48-21.57,10.48-8.46,0-15.7-3.14-21.69-9.43-6-6.29-9-13.95-9-22.99s3-16.8,9-23.05c6-6.24,13.23-9.37,21.69-9.37,9.37,0,16.56,3.45,21.57,10.35v-33.4ZM685.15,131.32c3.7,3.74,8.34,5.61,13.93,5.61s10.23-1.87,13.93-5.61c3.7-3.74,5.55-8.44,5.55-14.11s-1.85-10.37-5.55-14.11c-3.7-3.74-8.34-5.61-13.93-5.61s-10.23,1.87-13.93,5.61c-3.7,3.74-5.55,8.44-5.55,14.11s1.85,10.38,5.55,14.11Z"/>
    <path class="cls-6" d="M760.03,74.62c-1.68,1.69-3.68,2.53-5.98,2.53s-4.29-.84-5.98-2.53c-1.69-1.68-2.53-3.68-2.53-5.98s.82-4.29,2.47-5.98c1.64-1.68,3.66-2.53,6.04-2.53s4.39.84,6.04,2.53c1.64,1.69,2.47,3.68,2.47,5.98s-.84,4.29-2.53,5.98ZM747.4,148.02v-61.63h13.31v61.63h-13.31Z"/>
    <path class="cls-6" d="M808.53,84.79c7.07,0,12.78,2.26,17.13,6.78,4.35,4.52,6.53,10.72,6.53,18.61v37.84h-13.31v-36.48c0-4.6-1.23-8.14-3.7-10.6-2.46-2.47-5.83-3.7-10.11-3.7-4.68,0-8.46,1.46-11.34,4.38-2.88,2.92-4.31,7.38-4.31,13.37v33.03h-13.31v-61.63h13.31v7.89c4.03-6.33,10.39-9.49,19.11-9.49Z"/>
    <path class="cls-6" d="M895.55,86.39h13.07v58.79c0,9.37-3.08,16.56-9.24,21.57-6.16,5.01-13.64,7.52-22.43,7.52-14.22,0-23.95-4.97-29.21-14.91l11.46-6.66c3.21,6.33,9.2,9.49,18,9.49,5.75,0,10.25-1.5,13.5-4.5,3.25-3,4.87-7.17,4.87-12.51v-7.52c-5.01,7.15-12.16,10.72-21.45,10.72-8.71,0-16.07-3.1-22.06-9.31-6-6.2-9-13.7-9-22.49s3-16.29,9-22.49c6-6.2,13.35-9.31,22.06-9.31,9.29,0,16.43,3.57,21.45,10.72v-9.12ZM861.96,130.39c3.74,3.7,8.4,5.55,13.99,5.55s10.25-1.85,13.99-5.55c3.74-3.7,5.61-8.3,5.61-13.8s-1.87-10.11-5.61-13.8c-3.74-3.7-8.4-5.55-13.99-5.55s-10.25,1.85-13.99,5.55c-3.74,3.7-5.61,8.3-5.61,13.8s1.87,10.11,5.61,13.8Z"/>
  </g>
  <g>
    <path class="cls-6" d="M470.57,171.8v13.56h-24.28v72.72h-14.17v-72.72h-24.4v-13.56h62.86Z"/>
    <path class="cls-6" d="M517.9,196.46h13.31v61.63h-13.31v-8.87c-5.01,6.99-12.2,10.48-21.57,10.48-8.46,0-15.7-3.14-21.69-9.43-6-6.29-9-13.95-9-22.99s3-16.8,9-23.05c6-6.24,13.23-9.37,21.69-9.37,9.37,0,16.56,3.45,21.57,10.35v-8.75ZM484.5,241.38c3.7,3.74,8.34,5.61,13.93,5.61s10.23-1.87,13.93-5.61c3.7-3.74,5.55-8.44,5.55-14.11s-1.85-10.37-5.55-14.11c-3.7-3.74-8.34-5.61-13.93-5.61s-10.23,1.87-13.93,5.61c-3.7,3.74-5.55,8.44-5.55,14.11s1.85,10.38,5.55,14.11Z"/>
    <path class="cls-6" d="M575.83,259.69c-9.29,0-17.03-3.12-23.23-9.37-6.21-6.24-9.31-13.93-9.31-23.05s3.1-16.91,9.31-23.11,13.95-9.31,23.23-9.31c6,0,11.46,1.44,16.39,4.31,4.93,2.88,8.63,6.74,11.09,11.59l-11.46,6.66c-1.4-2.96-3.51-5.28-6.35-6.96-2.83-1.68-6.1-2.53-9.8-2.53-5.42,0-9.96,1.85-13.62,5.55-3.66,3.7-5.48,8.3-5.48,13.8s1.83,10.11,5.48,13.8c3.66,3.7,8.2,5.55,13.62,5.55,3.61,0,6.88-.86,9.8-2.59,2.92-1.73,5.11-4.02,6.59-6.9l11.46,6.53c-2.63,4.93-6.41,8.83-11.34,11.71-4.93,2.88-10.4,4.31-16.39,4.31Z"/>
    <path class="cls-6" d="M647.57,209.27h-15.28v29.58c0,2.55.57,4.38,1.73,5.48,1.15,1.11,2.85,1.73,5.11,1.85,2.26.12,5.07.1,8.44-.06v11.96c-10.19,1.23-17.5.35-21.94-2.65s-6.66-8.52-6.66-16.58v-29.58h-11.34v-12.82h11.34v-13.31l13.31-3.94v17.26h15.28v12.82Z"/>
    <path class="cls-6" d="M672.28,184.68c-1.68,1.69-3.68,2.53-5.98,2.53s-4.29-.84-5.98-2.53c-1.69-1.68-2.53-3.68-2.53-5.98s.82-4.29,2.47-5.98c1.64-1.68,3.66-2.53,6.04-2.53s4.39.84,6.04,2.53c1.64,1.69,2.47,3.68,2.47,5.98s-.84,4.29-2.53,5.98ZM659.65,258.08v-61.63h13.31v61.63h-13.31Z"/>
    <path class="cls-6" d="M717.45,259.69c-9.29,0-17.03-3.12-23.23-9.37-6.21-6.24-9.31-13.93-9.31-23.05s3.1-16.91,9.31-23.11,13.95-9.31,23.23-9.31c6,0,11.46,1.44,16.39,4.31,4.93,2.88,8.63,6.74,11.09,11.59l-11.46,6.66c-1.4-2.96-3.51-5.28-6.35-6.96-2.83-1.68-6.1-2.53-9.8-2.53-5.42,0-9.96,1.85-13.62,5.55-3.66,3.7-5.48,8.3-5.48,13.8s1.83,10.11,5.48,13.8c3.66,3.7,8.2,5.55,13.62,5.55,3.61,0,6.88-.86,9.8-2.59,2.92-1.73,5.11-4.02,6.59-6.9l11.46,6.53c-2.63,4.93-6.41,8.83-11.34,11.71-4.93,2.88-10.4,4.31-16.39,4.31Z"/>
    <path class="cls-6" d="M766.38,213.38c0,2.03,1.14,3.63,3.42,4.81,2.28,1.18,5.01,2.25,8.2,3.24,3.19.98,6.45,1.99,9.8,3.02,3.34,1.03,6.14,2.94,8.38,5.72,2.24,2.79,3.37,6.3,3.37,10.54,0,5.92-2.28,10.56-6.84,13.93-4.56,3.37-10.29,5.05-17.19,5.05-6.08,0-11.3-1.27-15.65-3.82-4.36-2.55-7.52-6.08-9.49-10.6l11.46-6.66c2.14,5.92,6.7,8.87,13.68,8.87s10.48-2.3,10.48-6.9c0-1.97-1.13-3.57-3.39-4.81-2.26-1.23-4.98-2.34-8.17-3.32-3.19-.98-6.45-1.99-9.8-3.02-3.35-1.03-6.15-2.88-8.41-5.55-2.26-2.67-3.39-6.06-3.39-10.17,0-5.67,2.16-10.23,6.47-13.68,4.31-3.45,9.68-5.18,16.08-5.18,5.09,0,9.63,1.13,13.62,3.39,3.99,2.26,7.04,5.4,9.18,9.43l-11.22,6.29c-2.14-4.68-6-7.03-11.59-7.03-2.55,0-4.68.55-6.41,1.64-1.73,1.1-2.59,2.7-2.59,4.81Z"/>
  </g>
</svg>